<?xml version="1.0" encoding="UTF-8" standalone="no"?>
<svg
   xmlns:dc="http://purl.org/dc/elements/1.1/"
   xmlns:cc="http://creativecommons.org/ns#"
   xmlns:rdf="http://www.w3.org/1999/02/22-rdf-syntax-ns#"
   xmlns:svg="http://www.w3.org/2000/svg"
   xmlns="http://www.w3.org/2000/svg"
   xmlns:sodipodi="http://sodipodi.sourceforge.net/DTD/sodipodi-0.dtd"
   xmlns:inkscape="http://www.inkscape.org/namespaces/inkscape"
   inkscape:export-ydpi="176.24165"
   inkscape:export-xdpi="176.24165"
   inkscape:export-filename="D:\drawings_2025\maumap_final\mauap_logo_inline_with_background.png"
   width="297mm"
   height="210mm"
   viewBox="0 0 297 210"
   version="1.1"
   id="svg2556"
   sodipodi:docname="maumap_logo_inline_with_background.svg"
   inkscape:version="1.0 (4035a4fb49, 2020-05-01)">
  <defs
     id="defs2550" />
  <sodipodi:namedview
     id="base"
     pagecolor="#ffffff"
     bordercolor="#666666"
     borderopacity="1.0"
     inkscape:pageopacity="0.0"
     inkscape:pageshadow="2"
     inkscape:zoom="0.5"
     inkscape:cx="142.53689"
     inkscape:cy="-56.644833"
     inkscape:document-units="mm"
     inkscape:current-layer="g2408"
     inkscape:document-rotation="0"
     showgrid="false"
     inkscape:window-width="1291"
     inkscape:window-height="729"
     inkscape:window-x="59"
     inkscape:window-y="0"
     inkscape:window-maximized="0" />
  <metadata
     id="metadata2553">
    <rdf:RDF>
      <cc:Work
         rdf:about="">
        <dc:format>image/svg+xml</dc:format>
        <dc:type
           rdf:resource="http://purl.org/dc/dcmitype/StillImage" />
        <dc:title />
      </cc:Work>
    </rdf:RDF>
  </metadata>
  <g
     inkscape:label="Пласт 1"
     inkscape:groupmode="layer"
     id="layer1">
    <g
       id="g2408"
       transform="matrix(1.0933883,0,0,1.0933883,41.520891,-478.15173)"
       style="fill:#ffff00">
      <path
         sodipodi:nodetypes="sccccsccccccscscccccccccccccccccssssccccccccss"
         d="m 66.234375,441.57227 c -10.049715,3.4e-4 -20.940819,3.53957 -29.618873,7.33762 -8.922346,-9.81137 -13.294873,-10.08562 -24.297143,4.13894 -18.5524246,-21.47414 -27.709638,-9.75356 -35.347656,14.90039 -15.505068,6.29032 -16.558782,23.46276 -9.441406,31.34766 -2.256934,7.3606 -3.489603,16.39913 6.488281,20.61523 6.228103,2.63162 12.742916,1.4748 16.0839845,0.61914 l 7.4960937,-1.91992 H 27.039062 l 7.496094,1.91992 c 6.746321,0.7254 11.945646,1.39209 16.933594,-1.14063 7.810721,1.19127 18.057589,0.66002 26.679688,-0.41015 3.776407,1.72592 7.769251,2.57031 12.019531,2.57031 5.203721,0 10.031931,-1.22918 14.525391,-3.88476 -2.68147,18.89548 -18.847357,33.5761 -38.458985,33.57617 -13.623909,4e-5 -25.609002,-7.01862 -32.556641,-17.51172 l -0.01172,-0.0156 -1.023438,-1.53515 -1.398437,-1.23828 -0.0332,-0.0293 C 18.949621,520.21019 -0.85598089,533.50799 6.2128906,549.25195 l 0.453125,1.01367 0.6367188,0.9668 0.015625,0.0254 c 12.6888586,19.12631 34.3439226,31.63668 58.9160156,31.63672 36.134585,-6e-5 65.783065,-26.98846 70.072265,-61.94336 16.72159,-0.0499 30.52716,1.31806 45.00194,0.30271 -0.74075,12.59722 5.61338,15.42392 10.09961,16.89843 h 0.006 c 3.61166,0.92178 8.3261,1.42279 13.42383,-0.2539 l 0.0488,-0.0176 c 6.3524,-3.06296 9.17773,-6.45524 9.17773,-17.09375 3.69753,-0.86964 7.20674,-2.42238 10.44922,-5.00977 5.41096,-4.31773 8.73438,-9.78121 8.73438,-17.52539 v -7.73828 c 0,-7.74418 -3.32342,-13.20762 -8.73438,-17.52539 -5.18158,-4.13468 -10.9814,-5.86719 -17.29297,-5.86719 -5.5972,-0.15581 -10.39802,-0.26258 -15.49212,0.29684 -5.0941,0.55942 -8.81499,-0.2653 -13.33019,-0.29474 -11.77956,1.54618 -16.11886,0.0813 -24.28321,0.008 -6.19003,0.50016 -10.54533,0.0348 -15.48437,0 -5.8309,0.0668 -10.87676,-0.3526 -15.38867,1.39062 l -0.0664,0.0254 L 122.08398,469 C 109.17112,452.32935 89.008074,441.57305 66.236328,441.57227 Z"
         style="font-style:normal;font-variant:normal;font-weight:normal;font-stretch:normal;font-size:50.8px;line-height:0.35;font-family:Rhanoll;-inkscape-font-specification:Rhanoll;text-align:end;text-anchor:end;display:inline;opacity:0.502;fill:#ffffff;fill-opacity:1;stroke:none;stroke-width:0.679977"
         id="path41-1-3-1-8-7-2"
         inkscape:export-xdpi="300"
         inkscape:export-ydpi="300" />
      <path
         id="path41-1-3-1-8-9"
         style="font-style:normal;font-variant:normal;font-weight:normal;font-stretch:normal;font-size:50.8px;line-height:0.35;font-family:Rhanoll;-inkscape-font-specification:Rhanoll;text-align:end;text-anchor:end;display:inline;opacity:0.995;fill:#000000;fill-opacity:1;stroke:none;stroke-width:2.81"
         d="M 430.64648 71.328125 C 388.00921 71.328166 347.99401 82.526361 313.35547 102.15234 L 313.33008 102.16211 L 313.30664 102.17773 C 309.69738 104.28241 306.07493 105.59665 303.51562 109.58789 C 297.48831 118.98753 307.68299 130.54855 318.06055 126.43945 C 320.32897 125.54126 321.51728 124.68033 325.72852 121.99219 C 356.74999 104.60733 392.53935 94.687335 430.64648 94.6875 C 549.32641 94.687913 645.57663 190.93721 645.57617 309.61719 C 645.57663 428.297 549.32658 524.53865 430.64648 524.53906 C 355.73109 524.53931 289.77281 486.20134 251.31055 428.11133 L 251.00391 427.65234 L 250.58398 427.28125 C 240.70284 418.65678 226.83829 429.9462 231.61719 440.58984 L 231.75391 440.89648 L 231.93945 441.17969 C 274.62093 505.51481 347.68574 547.89831 430.64648 547.89844 C 562.26941 547.89823 668.93339 441.24026 668.93359 309.61719 C 668.93339 177.99404 562.26962 71.330243 430.64648 71.330078 L 430.64648 71.328125 z M 139.36719 79.910156 C 138.91554 79.893507 138.50683 79.943172 138.14258 80.0625 C 132.78048 81.819139 118.02947 126.78209 103.66406 174.82812 C 72.039944 172.9059 57.156031 178.92832 95.044922 204.13672 C 94.623945 205.58937 94.205338 207.03644 93.789062 208.47852 C 72.508435 210.23049 41.30023 205.69481 84.59375 240.42773 C 75.748496 269.81855 67.245352 290.50043 70.470703 291.86328 C 80.830491 296.24071 92.214969 294.54783 102.69727 291.86328 C 102.69727 291.86328 108.29397 269.60273 115.70703 241.38281 L 87.708984 222.11133 L 120.78125 222.21875 L 123.70898 209.22461 L 94.757812 189.2793 L 130.03711 188.24023 C 139.37363 154.7459 148.16055 126.02255 150.89844 125.79688 C 157.32127 125.26745 196.49805 174.50391 196.49805 174.50391 L 207.83398 174.50391 L 219.16992 174.50391 C 219.16992 174.50391 258.34671 125.26745 264.76953 125.79688 C 267.50743 126.02255 276.29433 154.7459 285.63086 188.24023 L 320.91016 189.2793 L 291.95898 209.22461 L 294.88477 222.21875 L 327.95898 222.11133 L 299.96094 241.38281 C 307.374 269.60269 312.9707 291.86328 312.9707 291.86328 C 323.45299 294.54783 334.83749 296.24071 345.19727 291.86328 C 348.42262 290.50043 339.91946 269.81855 331.07422 240.42773 C 374.36773 205.69481 343.15953 210.23049 321.87891 208.47852 C 321.46263 207.03644 321.04401 205.58937 320.62305 204.13672 C 358.51192 178.92832 343.62802 172.9059 312.00391 174.82812 C 297.63848 126.78209 282.88749 81.819139 277.52539 80.0625 C 265.86949 76.243995 207.83398 144.23047 207.83398 144.23047 C 207.83398 144.23047 153.36826 80.426293 139.36719 79.910156 z M 408.86719 176.44531 C 395.84991 176.44568 384.75467 180.11302 375.57422 187.52344 C 366.8308 194.58126 362.10792 201.56115 361.71484 211.83398 C 361.66318 212.62297 361.63086 213.42605 361.63086 214.25586 L 361.63086 216.62109 L 363.89062 217.3418 C 373.05475 220.26273 380.85732 219.69617 388.16602 217.33398 L 390.41016 216.61328 L 390.41016 214.25586 C 390.41016 210.94883 391.61569 209.34811 395.63477 205.98633 C 399.61812 202.88072 404.10393 201.32812 409.04688 201.32812 C 414.00588 201.32812 418.30471 202.87442 421.98242 205.94531 C 425.593 208.96026 427.24805 212.42322 427.24805 215.98828 L 427.24805 221.11523 C 411.57223 221.2942 397.51505 223.93103 387.67188 227.91992 C 377.57194 232.01299 371.99846 236.14789 367.82812 242.0293 C 363.714 247.59105 361.63086 253.68914 361.63086 260.40039 C 361.63086 262.26717 361.78026 264.07344 362.07422 265.82422 C 363.2461 273.09691 367.00699 279.43868 373.35156 284.94727 C 373.37595 284.96685 373.40136 284.98438 373.42578 285.00391 C 373.44195 285.01799 373.45646 285.03281 373.47266 285.04688 L 373.52148 285.08984 L 373.57031 285.13086 C 381.64229 291.61209 391.17976 294.80078 402.17773 294.80078 C 414.67463 294.80078 425.75888 291.22557 435.75195 284.76562 C 442.5783 293.00525 451.96271 295.50087 458.16797 293.45508 C 461.77557 292.59961 464.30521 290.14889 464.53125 286.25781 C 465.12605 282.44231 463.65641 277.35227 458.99805 271.19141 C 458.07286 269.64588 456.45508 267.17207 456.45508 266.84961 L 456.45508 215.99023 C 456.45508 210.33192 455.23402 205.17212 452.82422 200.47852 C 450.50515 195.69786 446.95818 191.38224 442.17773 187.52344 C 432.9965 180.11227 421.88651 176.44577 408.86914 176.44531 L 408.86719 176.44531 z M 489.14062 176.64258 C 485.33618 176.59939 481.07906 177.0767 476.11133 178.51562 L 473.67383 179.22656 L 473.67383 251.05273 C 473.67383 263.32408 479.41567 273.51009 490.47852 281.93359 C 501.4664 290.30007 514.47805 294.39453 529.54297 294.39453 C 544.60761 294.39453 557.62153 290.30007 568.60938 281.93359 C 579.67226 273.51005 585.41406 263.32408 585.41406 251.05273 L 585.41406 179.31445 L 583.09766 178.55664 C 578.51505 177.04605 574.14549 176.55024 569.9082 176.67578 C 565.70207 176.80058 561.66466 177.53343 557.80078 178.47461 L 555.22656 179.10547 L 555.22656 251.05273 C 555.22656 255.9599 552.96835 260.37318 548.12305 264.0625 C 543.19989 267.81104 536.99887 269.80078 529.54297 269.80078 C 522.45079 269.80078 516.42863 267.839 511.48828 264.0957 C 506.9692 260.44072 504.79687 256.01995 504.79688 251.05273 L 504.79688 179.03125 L 502.125 178.45898 C 498.1757 177.61451 494.03207 176.6981 489.14062 176.64258 z M 975.15625 176.9043 C 970.37415 176.91285 965.77063 177.77169 961.29297 178.7207 L 959.9082 179.01953 L 959.9082 364.32812 L 961.22852 364.67383 C 969.72913 366.84339 978.25826 367.39382 986.62891 364.64062 L 987.82227 364.23242 L 987.82227 288.59961 C 996.16787 292.34956 1004.6116 294.77734 1013.2695 294.77734 C 1028.0779 294.77734 1040.731 290.64071 1051.2266 282.26562 C 1061.7531 273.86584 1067.1016 263.77133 1067.1016 251.83789 L 1067.1016 219.85156 C 1067.1016 207.91817 1061.7531 197.8237 1051.2266 189.42383 C 1040.731 181.0488 1028.0779 176.91211 1013.2695 176.91211 L 1013.2695 176.91602 C 1004.6116 176.91602 996.16787 179.34173 987.82227 183.0918 L 987.82227 179.19531 L 986.66016 178.78516 C 982.70294 177.40535 978.87566 176.89765 975.15625 176.9043 z M 894.16211 176.91602 C 881.17752 176.91639 870.11056 180.57306 860.95312 187.96484 C 851.83739 195.32316 847.08984 202.58648 847.08984 213.61523 L 847.08984 214.85742 L 848.2832 215.23438 C 857.3015 218.10889 865.0331 217.55725 872.2207 215.23438 L 873.41602 214.85742 L 873.41602 213.61523 C 873.41602 209.47597 875.11137 207.43335 879.35742 203.88672 C 883.74943 200.44853 888.6924 198.73242 894.16406 198.73242 C 899.63581 198.73242 904.4006 200.43141 908.48242 203.83984 C 912.52821 207.21803 914.4707 211.14153 914.4707 215.4082 L 914.4707 222.15039 L 914.42188 222.15039 C 897.80772 222.15039 883.04512 225.00014 872.81836 229.14453 C 862.62685 233.27454 857.18947 237.36743 853.1543 243.07031 C 849.12012 248.51214 847.08789 254.47655 847.08789 261.00391 C 847.08789 270.42086 850.97429 278.40891 858.73438 285.14648 C 866.70678 291.54763 876.17933 294.7168 887.12109 294.7168 C 900.2139 294.7168 911.83274 291.00885 922.1543 283.95117 C 935.3881 301.19399 960.98393 295.30624 944.17383 273.07422 C 943.29204 271.60107 941.25 268.73178 941.25 267.62109 L 941.25 215.4082 C 941.25 204.50115 936.58966 195.39188 927.38867 187.96484 C 918.2305 180.57231 907.14874 176.91647 894.16406 176.91602 L 894.16211 176.91602 z M 729.82227 176.94727 C 722.94729 176.94727 717.46864 179.64042 711.32227 183.1875 L 711.32227 179.39844 L 710.19141 179.02148 C 703.09394 176.65621 692.87411 176.17039 686.23828 178.83398 L 685.20117 179.25781 L 685.20117 247.37695 L 685.20117 260.97266 L 685.20117 292.3125 L 686.23828 292.73633 C 693.16004 295.50163 703.36713 295.23379 710.19141 292.98828 L 711.32227 292.61133 L 711.32227 247.59766 L 711.32227 223.56445 C 711.32227 217.28699 711.85803 212.21364 715.56641 208.28711 C 719.38677 204.24198 724.18761 202.18945 729.82227 202.18945 C 735.69259 202.18945 740.72731 204.36551 744.83203 208.69727 C 748.71108 212.57656 749.18555 217.31198 749.18555 223.3457 L 749.18555 292.28125 L 750.19141 292.7207 C 757.18999 295.72081 767.25956 294.74378 773.5957 292.73828 L 774.74219 292.37695 L 774.74219 260.94141 L 774.74219 223.31445 C 774.74219 217.04546 775.28308 212.19543 779.1582 208.32031 C 783.23334 204.2451 788.17199 202.18945 793.80664 202.18945 C 799.67701 202.18945 804.73112 204.36728 808.83398 208.69727 C 812.67456 212.53792 812.22852 217.07724 812.22852 223.31445 L 812.22852 292.37695 L 813.375 292.73828 C 819.77164 294.76341 829.17773 295.68568 836.02539 292.7207 L 837.01367 292.28125 L 837.01367 219.79297 C 837.01367 208.06975 832.79179 197.96571 824.39453 189.56836 C 815.95611 181.13002 805.81388 176.94727 793.80664 176.94727 C 780.8595 176.94727 770.30532 182.03102 761.80664 191.61133 C 753.30987 182.03238 742.76907 176.94727 729.82227 176.94727 z M 1013.2695 198.79492 C 1020.8784 198.79492 1027.2513 201.00927 1032.4609 205.39648 C 1037.6055 209.50166 1040.0996 214.38265 1040.0996 219.85547 L 1040.0996 251.83984 C 1040.0996 257.5831 1037.5909 262.56863 1032.4609 266.66211 C 1027.2904 270.78795 1020.8975 272.90234 1013.2695 272.90234 C 1005.9635 272.90234 999.91436 270.80085 995.05273 266.69336 C 990.22474 262.61418 987.82227 257.61707 987.82227 251.83984 L 987.82227 219.85547 C 987.82227 214.07829 990.22474 209.08114 995.05273 205.00195 C 999.91428 200.89438 1005.9635 198.79484 1013.2695 198.79492 z M 914.42383 244.32617 L 914.42383 244.32812 L 914.4707 244.32812 L 914.4707 249.23242 C 914.4707 255.49104 911.77143 261.13123 906.25195 265.9707 C 901.01183 270.57682 894.65501 272.90234 887.12305 272.90234 C 883.75602 272.90234 880.58011 271.72669 877.69336 269.31836 C 874.74032 266.62823 873.41797 263.8359 873.41797 261.00391 C 873.41797 257.49236 875.69236 254.216 880.88281 251.47852 L 881.04102 251.39844 L 881.76367 250.78516 C 892.67717 246.49104 903.555 244.32617 914.42383 244.32617 z M 427.24805 245.88477 L 427.24805 248.93945 C 427.24805 254.47117 424.8221 259.63225 419.77148 264.06055 C 414.98229 268.27023 409.14767 270.41211 402.17773 270.41211 C 399.33886 270.41211 396.61536 269.39147 394.0293 267.25195 C 391.46617 264.888 390.41016 262.57445 390.41016 260.40039 C 390.41016 257.80734 392.13163 254.98663 396.82422 252.51172 L 397.125 252.35742 L 397.74805 251.83789 C 407.62048 247.98013 417.45215 246.07312 427.24805 245.88477 z "
         transform="matrix(0.24198479,0,0,0.24198479,-37.974516,437.31191)"
         inkscape:export-xdpi="300"
         inkscape:export-ydpi="300" />
    </g>
  </g>
</svg>
